<?xml version="1.0" encoding="UTF-8" standalone="no"?>
<!-- Created with Inkscape (http://www.inkscape.org/) -->

<svg
   width="460"
   height="180"
   viewBox="0 0 121.70833 47.625"
   version="1.1"
   id="svg983"
   inkscape:version="1.1.1 (26b7af14f2, 2022-01-19)"
   sodipodi:docname="logo.svg"
   xmlns:inkscape="http://www.inkscape.org/namespaces/inkscape"
   xmlns:sodipodi="http://sodipodi.sourceforge.net/DTD/sodipodi-0.dtd"
   xmlns="http://www.w3.org/2000/svg"
   xmlns:svg="http://www.w3.org/2000/svg">
  <sodipodi:namedview
     id="namedview985"
     pagecolor="#ffffff"
     bordercolor="#666666"
     borderopacity="1.0"
     inkscape:pageshadow="2"
     inkscape:pageopacity="0.0"
     inkscape:pagecheckerboard="0"
     inkscape:document-units="px"
     showgrid="false"
     units="px"
     width="250px"
     inkscape:zoom="0.45254834"
     inkscape:cx="-55.242717"
     inkscape:cy="-208.81747"
     inkscape:window-width="1920"
     inkscape:window-height="1012"
     inkscape:window-x="0"
     inkscape:window-y="32"
     inkscape:window-maximized="1"
     inkscape:current-layer="layer1"
     showguides="false" />
  <defs
     id="defs980">
    <rect
       x="111.36926"
       y="289.82202"
       width="533.93341"
       height="58.409512"
       id="rect73268" />
    <rect
       x="104.8105"
       y="84.927322"
       width="1269.822"
       height="298.16077"
       id="rect16023" />
  </defs>
  <g
     inkscape:label="Layer 1"
     inkscape:groupmode="layer"
     id="layer1">
    <g
       id="g54280"
       transform="matrix(3.0905835,0,0,3.0898759,-7.7624243,0.4014438)"
       inkscape:export-filename="/mnt/C616A84216A834F9/matha-dc/logo.png"
       inkscape:export-xdpi="96"
       inkscape:export-ydpi="96">
      <path
         fill-rule="evenodd"
         clip-rule="evenodd"
         fill="#d1d3d4"
         d="m 9.178038,5.1490771 c 0,0 1.05724,-0.7009327 2.120321,-0.5198585 1.063082,0.1810743 1.834108,1.483641 1.956771,2.3539658 0.122663,0.8703248 -0.140187,1.7406495 -0.344625,2.1027981 -0.204439,0.3621486 -0.882007,1.0280345 -0.882007,1.0280345 0,0 -0.257009,1.483641 -0.572429,2.143686 -0.315419,0.660045 -0.835278,1.647192 -1.150698,1.834107 -0.3154192,0.186916 -0.7126145,0.192757 -0.9112121,0 C 9.2014024,13.899054 9.2539724,12.643216 9.3299068,12.024059 9.4058412,11.404902 9.4700933,10.663081 8.9852815,10.70981 8.5004697,10.756539 8.2785077,11.685275 8.2317788,12.064947 8.18505,12.444618 7.8813125,14.103493 7.3965007,14.19695 6.9116889,14.290408 6.3042139,14.115175 6.2282795,12.976159 6.1523451,11.837143 5.9946353,10.008877 5.8310843,9.6584109 5.6616922,9.3079445 4.989965,8.2565455 5.0074883,7.2109875 5.0250117,6.1654295 5.4689357,5.2658992 6.0647285,4.8453396 6.6605213,4.430621 7.139492,4.4189388 7.688556,4.4364621 8.23762,4.4539855 8.9443938,4.979685 9.178038,5.1490771 Z"
         id="path110"
         style="fill:#62baac;fill-opacity:1;stroke-width:0.0584111" />
      <path
         fill-rule="evenodd"
         clip-rule="evenodd"
         fill="#ffffff"
         d="m 9.7154198,5.5345901 c 0,0 0.8352782,-0.4848118 1.7581732,-0.1401866 0.928736,0.3446253 1.185744,1.5595753 1.156539,2.2079381 -0.02921,0.6483628 -0.257009,1.2967255 -0.554905,1.6063041 -0.297897,0.3037376 -0.584111,0.5373818 -0.584111,0.5373818 0,0 -0.537382,1.9392475 -0.706774,2.3890125 C 10.61495,12.584805 9.9665873,13.951624 9.8030364,13.647886 9.6336443,13.344149 10.118456,11.369855 9.9256996,10.820791 9.7329431,10.271727 9.3299068,9.9796717 8.8976649,10.003036 8.459582,10.032242 8.074069,10.429437 7.8696303,11.031071 7.6651916,11.632705 7.3147252,13.77055 7.1102865,13.688774 6.9058478,13.606999 6.8299134,13.116346 6.7306146,11.679434 6.6313158,10.242522 6.6313158,9.8511674 6.4151949,9.331309 6.2049151,8.8056094 5.1359927,7.3920618 5.8778131,6.1011774 6.6196336,4.8102929 7.414024,5.0088905 7.9514058,5.1724415 8.4887875,5.3418336 9.7796719,6.580148 9.9373818,6.5918303 10.095092,6.6035125 10.463081,6.5100548 10.3521,6.1829528 10.241119,5.8558509 9.7154198,5.5345901 9.7154198,5.5345901 Z"
         id="path112"
         style="stroke-width:0.0584111" />
      <polyline
         fill-rule="evenodd"
         clip-rule="evenodd"
         fill="#6bcce1"
         points="809.9,754.1 793.2,783.8 757,792.2 797.1,805.6      810.6,838 820.9,803.5 855.1,796.1 822,782.2 810.3,754.1    "
         id="polyline118"
         transform="matrix(0.05841106,0,0,0.05841106,-41.464351,-40.09613)"
         style="fill:#7f2ce3;fill-opacity:1" />
      <polyline
         fill-rule="evenodd"
         clip-rule="evenodd"
         fill="#6bcce1"
         points="857.9,701.9 845.9,723.3 819.9,729.3 848.7,738.9      858.4,762.3 865.8,737.4 890.4,732.1 866.6,722.2 858.2,701.9    "
         id="polyline120"
         transform="matrix(0.05841106,0,0,0.05841106,-41.464351,-40.09613)"
         style="fill:#7f2ce3;fill-opacity:1" />
      <polyline
         fill-rule="evenodd"
         clip-rule="evenodd"
         fill="#6bcce1"
         points="867.9,816.4 862,827 849.1,830 863.4,834.8      868.1,846.3 871.8,834 884,831.4 872.2,826.5 868,816.4    "
         id="polyline122"
         transform="matrix(0.05841106,0,0,0.05841106,-41.464351,-40.09613)"
         style="fill:#7f2ce3;fill-opacity:1" />
    </g>
    <text
       xml:space="preserve"
       transform="matrix(0.16624075,0,0,0.16624075,23.23541,10.034832)"
       id="text16021"
       style="font-size:85.3333px;line-height:0.42;font-family:Roboto;-inkscape-font-specification:Roboto;white-space:pre;shape-inside:url(#rect16023);display:inline;fill:#201928;fill-opacity:1"><tspan
         x="104.81055"
         y="148.71456"
         id="tspan20600"><tspan
           style="font-weight:600;font-size:138.667px;font-family:Poppins;-inkscape-font-specification:'Poppins, Semi-Bold'"
           id="tspan20598">Matha 
</tspan></tspan></text>
    <text
       xml:space="preserve"
       transform="matrix(0.14822973,0,0,0.14822973,25.226051,-2.8146714)"
       id="text73266"
       style="font-size:40px;line-height:0.52;font-family:Roboto;-inkscape-font-specification:Roboto;letter-spacing:4.21249272px;white-space:pre;shape-inside:url(#rect73268);display:inline;fill:#4c8085;fill-opacity:1"><tspan
         x="111.36914"
         y="310.22227"
         id="tspan20604"><tspan
           style="-inkscape-font-specification:'Roboto, Normal'"
           id="tspan20602">Speciality Dental Clinic</tspan></tspan></text>
  </g>
</svg>
